<?xml version="1.0" encoding="utf-8"?>
<!-- Generator: Adobe Illustrator 19.0.0, SVG Export Plug-In . SVG Version: 6.00 Build 0)  -->
<svg version="1.1" id="Capa_1" xmlns="http://www.w3.org/2000/svg" xmlns:xlink="http://www.w3.org/1999/xlink" x="0px" y="0px"
	 viewBox="0 0 841.9 595.3" style="enable-background:new 0 0 841.9 595.3;" xml:space="preserve">
<style type="text/css">
	.st0{fill:#C13C8A;}
	.st1{fill:#F7F7F8;}
	.st2{fill:#348EBB;stroke:#348EBB;stroke-miterlimit:10;}
	.st3{fill:#348EBB;}
	.st4{fill:#EDE971;}
	.st5{fill:#B9398A;stroke:#B9398A;stroke-width:2;stroke-miterlimit:10;}
</style>
<path id="XMLID_2_" class="st0" d="M314.2,239.3L314.2,239.3c0,8-6.5,14.5-14.5,14.5H178.5c-8,0-14.5-6.5-14.5-14.5v0
	c0-8,6.5-14.5,14.5-14.5h121.2C307.7,224.8,314.2,231.3,314.2,239.3z"/>
<path id="XMLID_16_" class="st0" d="M421.2,142c-45.7,0-82.7,37-82.7,82.7c0,45.7,37,82.7,82.7,82.7c45.7,0,82.7-37,82.7-82.7
	C503.9,179.1,466.9,142,421.2,142z M421.2,276.1c-28.3,0-51.3-23-51.3-51.3c0-28.3,23-51.3,51.3-51.3c28.3,0,51.3,23,51.3,51.3
	C472.5,253.1,449.5,276.1,421.2,276.1z"/>
<path id="XMLID_4_" class="st0" d="M260.3,131L260.3,131c6.4,4.8,7.7,13.9,2.8,20.3l-73,96.7c-4.8,6.4-13.9,7.7-20.3,2.8l0,0
	c-6.4-4.8-7.7-13.9-2.8-20.3l73-96.7C244.8,127.4,253.9,126.1,260.3,131z"/>
<path id="XMLID_5_" class="st0" d="M275.9,199.7L275.9,199.7c8,0,14.5,6.5,14.5,14.5v85.6c0,8-6.5,14.5-14.5,14.5h0
	c-8,0-14.5-6.5-14.5-14.5v-85.6C261.4,206.2,267.9,199.7,275.9,199.7z"/>
<path id="XMLID_7_" class="st0" d="M679.8,242.9L679.8,242.9c0,8-6.5,14.5-14.5,14.5H544.1c-8,0-14.5-6.5-14.5-14.5v0
	c0-8,6.5-14.5,14.5-14.5h121.2C673.3,228.4,679.8,234.9,679.8,242.9z"/>
<path id="XMLID_6_" class="st0" d="M625.9,134.6L625.9,134.6c6.4,4.8,7.7,13.9,2.8,20.3l-73,96.7c-4.8,6.4-13.9,7.7-20.3,2.8v0
	c-6.4-4.8-7.7-13.9-2.8-20.3l73-96.7C610.4,131,619.5,129.7,625.9,134.6z"/>
<path id="XMLID_3_" class="st0" d="M641.5,203.3L641.5,203.3c8,0,14.5,6.5,14.5,14.5v85.6c0,8-6.5,14.5-14.5,14.5h0
	c-8,0-14.5-6.5-14.5-14.5v-85.6C627,209.8,633.5,203.3,641.5,203.3z"/>
<ellipse id="XMLID_8_" class="st1" cx="628.9" cy="337.8" rx="46.3" ry="22.1"/>
<ellipse id="XMLID_10_" class="st1" cx="616.2" cy="320.5" rx="48.4" ry="27.5"/>
<ellipse id="XMLID_12_" class="st1" cx="593.1" cy="329.6" rx="48.4" ry="27.5"/>
<ellipse id="XMLID_24_" class="st1" cx="391.8" cy="329.9" rx="61.1" ry="29.1"/>
<ellipse id="XMLID_21_" class="st1" cx="403.7" cy="322.5" rx="51.8" ry="29.4"/>
<ellipse id="XMLID_20_" class="st1" cx="418.5" cy="338.2" rx="51.8" ry="29.4"/>
<ellipse id="XMLID_30_" class="st1" cx="454" cy="329" rx="61.1" ry="29.1"/>
<ellipse id="XMLID_29_" class="st1" cx="455.5" cy="321" rx="51.8" ry="29.4"/>
<ellipse id="XMLID_28_" class="st1" cx="492.9" cy="335.6" rx="51.8" ry="29.4"/>
<ellipse id="XMLID_33_" class="st1" cx="242" cy="333.8" rx="46.3" ry="22.1"/>
<ellipse id="XMLID_32_" class="st1" cx="261.4" cy="316.6" rx="48.4" ry="27.5"/>
<ellipse id="XMLID_34_" class="st1" cx="314.2" cy="325.6" rx="48.4" ry="27.5"/>
<ellipse id="XMLID_35_" class="st1" cx="324.3" cy="338.2" rx="48.4" ry="27.5"/>
<ellipse id="XMLID_36_" class="st1" cx="580.5" cy="348" rx="48.4" ry="27.5"/>
<ellipse id="XMLID_37_" class="st1" cx="544.7" cy="320.5" rx="48.4" ry="27.5"/>
<ellipse id="XMLID_38_" class="st1" cx="287.5" cy="338.2" rx="48.4" ry="27.5"/>
<path id="XMLID_31_" class="st0" d="M403.9,237.4h-1.9c-1.1,0-2-0.9-2-2v-15.1c0-1.1,0.9-2,2-2h1.9c1.1,0,2,0.9,2,2v15.1
	C405.8,236.5,405,237.4,403.9,237.4z"/>
<g id="XMLID_1_">
	<path id="XMLID_23_" class="st2" d="M388.1,234.7"/>
	<path id="XMLID_18_" class="st2" d="M388.1,222.4"/>
	<path id="XMLID_11_" class="st2" d="M387.9,212.2h14.8c1.3,0,2.4,1,2.4,2.3v0c0,1.3-1.1,2.3-2.4,2.3h-14.8h0.3c-1.7,0-3,1.3-3,2.9
		c0,1.6,1.4,2.8,3.1,2.8c4.4-0.1,8,3.3,8,7.4c0,4.1-3.5,7.4-7.7,7.5c-4.4,0.1-8-3.3-8-7.4v0.2v-0.8c0-1.3,1.1-2.3,2.4-2.3l0,0
		c1.3,0,2.4,1,2.4,2.3v0.8v-0.2c0,1.6,1.3,2.8,3,2.8c1.7,0,3-1.3,3-2.9c0-1.6-1.4-2.8-3.1-2.8c-4.4,0.1-8-3.3-8-7.4
		c0-4.1,3.5-7.4,7.9-7.4"/>
</g>
<path id="XMLID_9_" class="st3" d="M422,231.5c-3.7,0-6.7-3.1-6.5-6.9c0.2-3.3,2.9-6,6.3-6.1c2.8-0.1,5.1,1.5,6.2,3.9
	c0.5,1.1,1.5,1.8,2.7,1.8l0,0c2.1,0,3.6-2.2,2.7-4.1c-2.3-5.2-8-8.5-14.3-7c-4.5,1-8,4.5-9,9c-2,8.2,4.2,15.5,12,15.5
	c5.1,0,9.4-3,11.3-7.4c0.9-1.9-0.6-4.1-2.7-4.1h0c-1.2,0-2.2,0.7-2.7,1.8C426.9,229.9,424.6,231.5,422,231.5z"/>
<path id="XMLID_13_" class="st3" d="M449.7,212.5c-6.8,0-12.4,5.5-12.4,12.4c0,6.8,5.5,12.4,12.4,12.4c6.8,0,12.4-5.5,12.4-12.4
	C462,218,456.5,212.5,449.7,212.5z M449.7,231.4c-3.6,0-6.5-2.9-6.5-6.5c0-3.6,2.9-6.5,6.5-6.5c3.6,0,6.5,2.9,6.5,6.5
	C456.2,228.4,453.3,231.4,449.7,231.4z"/>
<polyline id="XMLID_25_" class="st4" points="523.3,356 558.9,364.7 500.5,449.6 "/>
<polyline id="XMLID_26_" class="st4" points="523.5,402.8 483,396.7 536.3,317.4 "/>
<polyline id="XMLID_39_" class="st4" points="444.6,367.5 466.2,372.7 430.8,424.2 "/>
<polyline id="XMLID_27_" class="st4" points="444.7,395.9 420.2,392.2 452.5,344.1 "/>
<g id="XMLID_42_">
	<path id="XMLID_43_" class="st5" d="M209.5,398.1c1,0.6,1.8,1.5,2.4,2.5c0.6,1.1,0.9,2.3,0.9,3.5c0,1.3-0.3,2.5-0.9,3.6
		c-0.6,1.1-1.4,2-2.4,2.6s-2.1,1-3.2,1h-6.2v7.3c0,0.4-0.1,0.8-0.4,1.1s-0.6,0.5-1.1,0.5c-0.5,0-0.8-0.1-1.1-0.4s-0.4-0.7-0.4-1.1
		v-19.9c0-0.4,0.2-0.8,0.5-1.1c0.3-0.3,0.7-0.5,1.1-0.5h7.6C207.4,397.2,208.5,397.5,209.5,398.1z M207.9,407.8
		c0.5-0.4,0.9-0.9,1.2-1.5c0.3-0.6,0.4-1.3,0.4-2c0-1.1-0.3-2.1-1-2.8c-0.6-0.8-1.4-1.2-2.3-1.2h-6.2v8.2h6.2
		C206.8,408.4,207.4,408.2,207.9,407.8z"/>
	<path id="XMLID_46_" class="st5" d="M234.5,418.8c0,0.4-0.1,0.8-0.4,1.1c-0.3,0.3-0.6,0.4-1,0.4c-0.3,0-0.6-0.1-0.8-0.3
		c-0.3-0.2-0.5-0.4-0.6-0.8l-2-4.8h-10.2l-2,4.9c-0.1,0.3-0.3,0.6-0.5,0.8c-0.3,0.2-0.5,0.3-0.8,0.3c-0.5,0-0.8-0.1-1.1-0.4
		s-0.4-0.6-0.4-1c0-0.1,0-0.3,0.1-0.5l8.4-20.3c0.2-0.3,0.4-0.6,0.6-0.8c0.3-0.2,0.6-0.3,0.9-0.2c0.3,0,0.6,0.1,0.9,0.3
		c0.3,0.2,0.4,0.4,0.6,0.8l8.3,20.1C234.5,418.3,234.5,418.6,234.5,418.8z M220.7,411.4h7.7l-3.8-9.2L220.7,411.4z M223.9,395.6
		c-0.2-0.2-0.3-0.4-0.3-0.7c0-0.3,0.1-0.5,0.4-0.8l2.9-2.4c0.5-0.4,0.9-0.6,1.3-0.6c0.4,0,0.7,0.1,1,0.4c0.3,0.3,0.4,0.6,0.4,1
		c0,0.3-0.1,0.6-0.3,0.8c-0.2,0.3-0.4,0.5-0.7,0.6l-3.3,1.7c-0.3,0.1-0.5,0.2-0.8,0.2C224.3,395.8,224.1,395.7,223.9,395.6z"/>
	<path id="XMLID_50_" class="st5" d="M255.9,408.5c0.3,0.3,0.4,0.7,0.4,1.1v7.4c0,0.6-0.3,1.1-0.8,1.4c-1,0.7-2.1,1.2-3.3,1.5
		c-1.2,0.4-2.4,0.5-3.7,0.5c-2.2,0-4.2-0.5-6-1.6c-1.8-1.1-3.3-2.5-4.3-4.3c-1.1-1.8-1.6-3.8-1.6-6c0-2.2,0.5-4.2,1.6-6
		c1.1-1.8,2.5-3.2,4.3-4.3c1.8-1.1,3.8-1.6,6-1.6c1.1,0,2.2,0.1,3.2,0.4c1,0.2,1.9,0.6,2.7,1.1c0.3,0.2,0.5,0.3,0.6,0.6
		c0.1,0.2,0.2,0.5,0.2,0.7c0,0.4-0.1,0.8-0.4,1.1c-0.3,0.3-0.7,0.5-1.1,0.5c-0.3,0-0.6-0.1-0.9-0.2c-1.4-0.7-2.9-1-4.3-1
		c-1.6,0-3,0.4-4.3,1.2c-1.3,0.8-2.3,1.8-3.1,3.2c-0.8,1.3-1.1,2.8-1.1,4.4c0,1.6,0.4,3.1,1.1,4.4c0.8,1.3,1.8,2.4,3.1,3.2
		c1.3,0.8,2.7,1.2,4.3,1.2c0.7,0,1.5-0.1,2.4-0.3c0.8-0.2,1.5-0.4,2.1-0.7v-5.2h-4c-0.4,0-0.8-0.1-1.1-0.4c-0.3-0.3-0.5-0.7-0.5-1.1
		c0-0.5,0.2-0.8,0.5-1.1c0.3-0.3,0.7-0.4,1.1-0.4h5.8C255.2,408.1,255.6,408.2,255.9,408.5z"/>
	<path id="XMLID_52_" class="st5" d="M263.5,419.7c-0.3,0.3-0.7,0.5-1.2,0.5c-0.5,0-0.9-0.2-1.2-0.5s-0.4-0.7-0.4-1.2v-19.8
		c0-0.4,0.2-0.8,0.5-1.1c0.3-0.3,0.7-0.5,1.2-0.5c0.4,0,0.8,0.2,1.1,0.5c0.3,0.3,0.5,0.7,0.5,1.1v19.8
		C264,419,263.8,419.4,263.5,419.7z"/>
	<path id="XMLID_54_" class="st5" d="M287.6,397.6c0.3,0.3,0.4,0.6,0.4,1v20c0,0.5-0.1,0.8-0.4,1.2s-0.7,0.5-1.1,0.5
		c-0.2,0-0.5,0-0.7-0.1c-0.2-0.1-0.4-0.2-0.5-0.3l-12.9-16.8v15.8c0,0.4-0.1,0.8-0.4,1c-0.3,0.3-0.6,0.4-1,0.4c-0.4,0-0.8-0.1-1-0.4
		c-0.3-0.3-0.4-0.6-0.4-1v-20c0-0.5,0.1-0.8,0.4-1.1s0.7-0.4,1.1-0.4c0.3,0,0.5,0,0.8,0.1s0.4,0.2,0.6,0.4l12.9,16.9v-16
		c0-0.4,0.1-0.8,0.4-1c0.3-0.3,0.6-0.4,1-0.4C287,397.2,287.4,397.3,287.6,397.6z"/>
	<path id="XMLID_56_" class="st5" d="M311.3,418.8c0,0.4-0.1,0.8-0.4,1.1c-0.3,0.3-0.6,0.4-1,0.4c-0.3,0-0.6-0.1-0.8-0.3
		c-0.3-0.2-0.5-0.4-0.6-0.8l-2-4.8h-10.2l-2,4.9c-0.1,0.3-0.3,0.6-0.5,0.8c-0.3,0.2-0.5,0.3-0.8,0.3c-0.5,0-0.8-0.1-1.1-0.4
		s-0.4-0.6-0.4-1c0-0.1,0-0.3,0.1-0.5l8.4-20.3c0.2-0.3,0.4-0.6,0.6-0.8c0.3-0.2,0.6-0.3,0.9-0.2c0.3,0,0.6,0.1,0.9,0.3
		c0.3,0.2,0.4,0.4,0.6,0.8l8.3,20.1C311.2,418.3,311.3,418.6,311.3,418.8z M297.4,411.4h7.7l-3.8-9.2L297.4,411.4z"/>
	<path id="XMLID_59_" class="st5" d="M215.2,437c0.3,0.3,0.4,0.6,0.4,1v20c0,0.5-0.1,0.8-0.4,1.2s-0.7,0.5-1.1,0.5
		c-0.2,0-0.5,0-0.7-0.1c-0.2-0.1-0.4-0.2-0.5-0.3l-12.9-16.8v15.8c0,0.4-0.1,0.8-0.4,1c-0.3,0.3-0.6,0.4-1,0.4c-0.4,0-0.8-0.1-1-0.4
		c-0.3-0.3-0.4-0.6-0.4-1v-20c0-0.5,0.1-0.8,0.4-1.1s0.7-0.4,1.1-0.4c0.3,0,0.5,0,0.8,0.1s0.4,0.2,0.6,0.4l12.9,16.9v-16
		c0-0.4,0.1-0.8,0.4-1c0.3-0.3,0.6-0.4,1-0.4C214.6,436.6,215,436.8,215.2,437z"/>
	<path id="XMLID_61_" class="st5" d="M240.6,454.1c-1,1.8-2.3,3.2-4,4.3s-3.6,1.6-5.7,1.6c-2.1,0-4-0.5-5.7-1.6c-1.7-1-3-2.5-4-4.3
		c-1-1.8-1.4-3.8-1.4-6c0-2.2,0.5-4.2,1.4-6c1-1.8,2.3-3.2,4-4.3c1.7-1,3.6-1.6,5.7-1.6c2.1,0,4,0.5,5.7,1.6c1.7,1,3,2.5,4,4.3
		c1,1.8,1.4,3.8,1.4,6C242,450.3,241.5,452.3,240.6,454.1z M237.6,443.7c-0.7-1.3-1.6-2.4-2.7-3.1c-1.2-0.8-2.5-1.1-4-1.1
		c-1.5,0-2.8,0.4-4,1.1s-2.1,1.8-2.7,3.1c-0.7,1.3-1,2.8-1,4.5c0,1.6,0.3,3.1,1,4.5c0.7,1.3,1.6,2.4,2.7,3.1c1.2,0.8,2.5,1.1,4,1.1
		c1.5,0,2.8-0.4,4-1.1c1.2-0.8,2.1-1.8,2.7-3.1c0.7-1.3,1-2.8,1-4.5C238.6,446.5,238.3,445,237.6,443.7z"/>
	<path id="XMLID_64_" class="st5" d="M269.4,457.1c0.3,0.3,0.4,0.7,0.4,1.1c0,0.4-0.1,0.8-0.4,1.1c-0.3,0.3-0.7,0.4-1.1,0.4h-11.4
		c-0.4,0-0.8-0.2-1.1-0.5c-0.3-0.3-0.5-0.7-0.5-1.1v-19.9c0-0.4,0.2-0.8,0.5-1.1c0.3-0.3,0.7-0.5,1.1-0.5h11.4
		c0.5,0,0.8,0.1,1.1,0.4c0.3,0.3,0.4,0.7,0.4,1.1c0,0.4-0.1,0.8-0.4,1.1c-0.3,0.3-0.7,0.4-1.1,0.4h-9.8v6.7h8.3
		c0.5,0,0.8,0.1,1.1,0.4c0.3,0.3,0.4,0.6,0.4,1.1c0,0.5-0.1,0.8-0.4,1.1s-0.7,0.4-1.1,0.4h-8.3v7.3h9.8
		C268.7,456.6,269.1,456.8,269.4,457.1z"/>
	<path id="XMLID_66_" class="st5" d="M292.2,437c0.3,0.3,0.4,0.6,0.4,1v20c0,0.5-0.1,0.8-0.4,1.2s-0.7,0.5-1.1,0.5
		c-0.2,0-0.5,0-0.7-0.1c-0.2-0.1-0.4-0.2-0.5-0.3l-12.9-16.8v15.8c0,0.4-0.1,0.8-0.4,1c-0.3,0.3-0.6,0.4-1,0.4c-0.4,0-0.8-0.1-1-0.4
		c-0.3-0.3-0.4-0.6-0.4-1v-20c0-0.5,0.1-0.8,0.4-1.1s0.7-0.4,1.1-0.4c0.3,0,0.5,0,0.8,0.1s0.4,0.2,0.6,0.4l12.9,16.9v-16
		c0-0.4,0.1-0.8,0.4-1c0.3-0.3,0.6-0.4,1-0.4C291.6,436.6,291.9,436.8,292.2,437z"/>
	<path id="XMLID_68_" class="st5" d="M315.2,439.3c0,0.4-0.1,0.8-0.4,1.1c-0.3,0.4-0.6,0.5-1.1,0.5c-0.3,0-0.6-0.1-0.9-0.2
		c-1.4-0.8-2.8-1.2-4.4-1.2c-1.6,0-3.1,0.4-4.4,1.1c-1.3,0.7-2.2,1.7-2.9,3c-0.7,1.3-1.1,2.8-1.1,4.5c0,1.8,0.4,3.4,1.1,4.7
		c0.7,1.3,1.7,2.3,3,3s2.7,1,4.3,1c1.6,0,3.1-0.4,4.4-1.2c0.3-0.1,0.5-0.2,0.9-0.2c0.5,0,0.9,0.2,1.2,0.6c0.3,0.3,0.4,0.7,0.4,1.1
		c0,0.3-0.1,0.5-0.2,0.7c-0.1,0.2-0.3,0.4-0.6,0.5c-0.9,0.5-1.8,0.9-2.9,1.2c-1.1,0.3-2.1,0.4-3.1,0.4c-2.1,0-4.1-0.5-5.9-1.4
		c-1.8-0.9-3.2-2.3-4.3-4.1c-1.1-1.8-1.6-3.9-1.6-6.3c0-2.2,0.5-4.2,1.5-6s2.4-3.2,4.2-4.2c1.8-1,3.8-1.5,6-1.5c2.1,0,4.1,0.5,6,1.6
		C315,438.3,315.2,438.7,315.2,439.3z"/>
	<path id="XMLID_70_" class="st5" d="M338.5,454.1c-1,1.8-2.3,3.2-4,4.3s-3.6,1.6-5.7,1.6c-2.1,0-4-0.5-5.7-1.6c-1.7-1-3-2.5-4-4.3
		c-1-1.8-1.4-3.8-1.4-6c0-2.2,0.5-4.2,1.4-6c1-1.8,2.3-3.2,4-4.3c1.7-1,3.6-1.6,5.7-1.6c2.1,0,4,0.5,5.7,1.6c1.7,1,3,2.5,4,4.3
		c1,1.8,1.4,3.8,1.4,6C339.9,450.3,339.5,452.3,338.5,454.1z M335.6,443.7c-0.7-1.3-1.6-2.4-2.7-3.1c-1.2-0.8-2.5-1.1-4-1.1
		c-1.5,0-2.8,0.4-4,1.1s-2.1,1.8-2.7,3.1c-0.7,1.3-1,2.8-1,4.5c0,1.6,0.3,3.1,1,4.5c0.7,1.3,1.6,2.4,2.7,3.1c1.2,0.8,2.5,1.1,4,1.1
		c1.5,0,2.8-0.4,4-1.1c1.2-0.8,2.1-1.8,2.7-3.1c0.7-1.3,1-2.8,1-4.5C336.5,446.5,336.2,445,335.6,443.7z"/>
	<path id="XMLID_73_" class="st5" d="M362.3,437c0.3,0.3,0.4,0.6,0.4,1v20c0,0.5-0.1,0.8-0.4,1.2c-0.3,0.3-0.7,0.5-1.1,0.5
		c-0.2,0-0.5,0-0.7-0.1c-0.2-0.1-0.4-0.2-0.5-0.3l-12.9-16.8v15.8c0,0.4-0.1,0.8-0.4,1c-0.3,0.3-0.6,0.4-1,0.4c-0.4,0-0.8-0.1-1-0.4
		c-0.3-0.3-0.4-0.6-0.4-1v-20c0-0.5,0.1-0.8,0.4-1.1s0.7-0.4,1.1-0.4c0.3,0,0.5,0,0.8,0.1s0.4,0.2,0.6,0.4l12.9,16.9v-16
		c0-0.4,0.1-0.8,0.4-1c0.3-0.3,0.6-0.4,1-0.4S362,436.8,362.3,437z"/>
	<path id="XMLID_75_" class="st5" d="M384.2,437c0.3,0.3,0.4,0.6,0.4,1.1c0,0.5-0.1,0.8-0.4,1.1s-0.7,0.4-1.1,0.4h-5.9v18.4
		c0,0.4-0.2,0.8-0.5,1.1s-0.7,0.5-1.2,0.5c-0.5,0-0.9-0.2-1.2-0.5s-0.5-0.7-0.5-1.1v-18.4H368c-0.5,0-0.8-0.1-1.1-0.4
		c-0.3-0.3-0.4-0.6-0.4-1.1c0-0.4,0.1-0.8,0.4-1.1c0.3-0.3,0.7-0.4,1.1-0.4h15C383.5,436.6,383.9,436.8,384.2,437z"/>
	<path id="XMLID_77_" class="st5" d="M406.5,457.6c0.1,0.2,0.2,0.5,0.2,0.7c0,0.5-0.1,0.8-0.4,1c-0.3,0.2-0.7,0.3-1.1,0.3
		c-0.4,0-0.8-0.1-1.1-0.3c-0.7-0.4-1.2-1-1.6-1.8c-0.4-0.8-0.6-2.1-0.6-3.7c0-1.1-0.3-1.9-1-2.4c-0.7-0.5-1.5-0.8-2.6-0.8h-6.6v7.4
		c0,0.5-0.1,0.8-0.4,1.1c-0.3,0.3-0.6,0.4-1,0.4c-0.5,0-0.9-0.2-1.3-0.5c-0.4-0.3-0.5-0.7-0.5-1.1v-19.9c0-0.4,0.2-0.8,0.5-1.1
		c0.3-0.3,0.7-0.5,1.1-0.5h9.2c1.2,0,2.3,0.3,3.3,0.9c1,0.6,1.8,1.4,2.4,2.4c0.6,1,0.9,2.2,0.9,3.4c0,1.2-0.3,2.4-1,3.4
		c-0.7,1.1-1.5,1.9-2.5,2.4c0.8,0.4,1.5,1,1.9,1.7c0.5,0.7,0.7,1.6,0.8,2.6c0.1,1.2,0.2,2.1,0.3,2.5c0.1,0.4,0.4,0.8,0.7,1
		C406.2,457.2,406.3,457.3,406.5,457.6z M400.7,447.3c0.5-0.4,0.9-0.9,1.2-1.6c0.3-0.7,0.5-1.4,0.5-2.3c0-1.1-0.3-1.9-1-2.7
		c-0.6-0.7-1.4-1.1-2.4-1.1h-7.4v8.3h7.5C399.7,447.9,400.2,447.7,400.7,447.3z"/>
	<path id="XMLID_80_" class="st5" d="M428.6,458.2c0,0.4-0.1,0.8-0.4,1.1c-0.3,0.3-0.6,0.4-1,0.4c-0.3,0-0.6-0.1-0.8-0.3
		c-0.3-0.2-0.5-0.4-0.6-0.8l-2-4.8h-10.2l-2,4.9c-0.1,0.3-0.3,0.6-0.5,0.8c-0.3,0.2-0.5,0.3-0.8,0.3c-0.5,0-0.8-0.1-1.1-0.4
		s-0.4-0.6-0.4-1c0-0.1,0-0.3,0.1-0.5l8.4-20.3c0.2-0.3,0.4-0.6,0.6-0.8s0.6-0.3,0.9-0.2c0.3,0,0.6,0.1,0.9,0.3
		c0.3,0.2,0.4,0.4,0.6,0.8l8.4,20.1C428.5,457.8,428.6,458,428.6,458.2z M414.7,450.9h7.7l-3.8-9.2L414.7,450.9z"/>
	<path id="XMLID_83_" class="st5" d="M446.8,438.2c1.5,1,2.6,2.4,3.3,4.2c0.7,1.7,1.1,3.7,1.1,5.8c0,2.1-0.4,4.1-1.1,5.8
		c-0.7,1.7-1.9,3.1-3.3,4.1c-1.5,1-3.2,1.5-5.3,1.5h-8.1c-0.4,0-0.8-0.2-1.1-0.5s-0.5-0.7-0.5-1.1v-19.9c0-0.4,0.2-0.8,0.5-1.1
		c0.3-0.3,0.7-0.5,1.1-0.5h8.1C443.6,436.6,445.4,437.1,446.8,438.2z M446.2,454.2c1.1-1.6,1.7-3.6,1.7-6.1c0-2.5-0.6-4.5-1.7-6.1
		s-2.8-2.4-5-2.4h-6.1v17h6.1C443.4,456.6,445.1,455.8,446.2,454.2z"/>
	<path id="XMLID_86_" class="st5" d="M473.1,458.2c0,0.4-0.1,0.8-0.4,1.1c-0.3,0.3-0.6,0.4-1,0.4c-0.3,0-0.6-0.1-0.8-0.3
		c-0.3-0.2-0.5-0.4-0.6-0.8l-2-4.8h-10.2l-2,4.9c-0.1,0.3-0.3,0.6-0.5,0.8c-0.3,0.2-0.5,0.3-0.8,0.3c-0.5,0-0.8-0.1-1.1-0.4
		s-0.4-0.6-0.4-1c0-0.1,0-0.3,0.1-0.5l8.4-20.3c0.2-0.3,0.4-0.6,0.6-0.8s0.6-0.3,0.9-0.2c0.3,0,0.6,0.1,0.9,0.3
		c0.3,0.2,0.4,0.4,0.6,0.8l8.3,20.1C473,457.8,473.1,458,473.1,458.2z M459.2,450.9h7.7l-3.8-9.2L459.2,450.9z"/>
</g>
</svg>
