<?xml version="1.0" encoding="utf-8"?>
<!-- Generator: Adobe Illustrator 19.0.0, SVG Export Plug-In . SVG Version: 6.00 Build 0)  -->
<svg version="1.1" id="Capa_1" xmlns="http://www.w3.org/2000/svg" xmlns:xlink="http://www.w3.org/1999/xlink" x="0px" y="0px"
	 viewBox="0 0 841.9 595.3" style="enable-background:new 0 0 841.9 595.3;" xml:space="preserve">
<style type="text/css">
	.st0{fill:#C13C8A;}
	.st1{fill:#F7F7F8;}
	.st2{fill:#348EBB;stroke:#348EBB;stroke-miterlimit:10;}
	.st3{fill:#348EBB;}
	.st4{fill:#EDE971;}
	.st5{fill:none;}
	.st6{fill:#B9398A;stroke:#B9398A;stroke-width:2;stroke-miterlimit:10;}
	.st7{font-family:'Quicksand-Medium';}
	.st8{font-size:32.8727px;}
</style>
<path id="XMLID_2_" class="st0" d="M314.2,239.3L314.2,239.3c0,8-6.5,14.5-14.5,14.5H178.5c-8,0-14.5-6.5-14.5-14.5v0
	c0-8,6.5-14.5,14.5-14.5h121.2C307.7,224.8,314.2,231.3,314.2,239.3z"/>
<path id="XMLID_16_" class="st0" d="M421.2,142c-45.7,0-82.7,37-82.7,82.7c0,45.7,37,82.7,82.7,82.7c45.7,0,82.7-37,82.7-82.7
	C503.9,179.1,466.9,142,421.2,142z M421.2,276.1c-28.3,0-51.3-23-51.3-51.3c0-28.3,23-51.3,51.3-51.3c28.3,0,51.3,23,51.3,51.3
	C472.5,253.1,449.5,276.1,421.2,276.1z"/>
<path id="XMLID_4_" class="st0" d="M260.3,131L260.3,131c6.4,4.8,7.7,13.9,2.8,20.3l-73,96.7c-4.8,6.4-13.9,7.7-20.3,2.8l0,0
	c-6.4-4.8-7.7-13.9-2.8-20.3l73-96.7C244.8,127.4,253.9,126.1,260.3,131z"/>
<path id="XMLID_5_" class="st0" d="M275.9,199.7L275.9,199.7c8,0,14.5,6.5,14.5,14.5v85.6c0,8-6.5,14.5-14.5,14.5h0
	c-8,0-14.5-6.5-14.5-14.5v-85.6C261.4,206.2,267.9,199.7,275.9,199.7z"/>
<path id="XMLID_7_" class="st0" d="M679.8,242.9L679.8,242.9c0,8-6.5,14.5-14.5,14.5H544.1c-8,0-14.5-6.5-14.5-14.5v0
	c0-8,6.5-14.5,14.5-14.5h121.2C673.3,228.4,679.8,234.9,679.8,242.9z"/>
<path id="XMLID_6_" class="st0" d="M625.9,134.6L625.9,134.6c6.4,4.8,7.7,13.9,2.8,20.3l-73,96.7c-4.8,6.4-13.9,7.7-20.3,2.8v0
	c-6.4-4.8-7.7-13.9-2.8-20.3l73-96.7C610.4,131,619.5,129.7,625.9,134.6z"/>
<path id="XMLID_3_" class="st0" d="M641.5,203.3L641.5,203.3c8,0,14.5,6.5,14.5,14.5v85.6c0,8-6.5,14.5-14.5,14.5h0
	c-8,0-14.5-6.5-14.5-14.5v-85.6C627,209.8,633.5,203.3,641.5,203.3z"/>
<ellipse id="XMLID_8_" class="st1" cx="628.9" cy="337.8" rx="46.3" ry="22.1"/>
<ellipse id="XMLID_10_" class="st1" cx="616.2" cy="320.5" rx="48.4" ry="27.5"/>
<ellipse id="XMLID_12_" class="st1" cx="593.1" cy="329.6" rx="48.4" ry="27.5"/>
<ellipse id="XMLID_24_" class="st1" cx="391.8" cy="329.9" rx="61.1" ry="29.1"/>
<ellipse id="XMLID_21_" class="st1" cx="403.7" cy="322.5" rx="51.8" ry="29.4"/>
<ellipse id="XMLID_20_" class="st1" cx="418.5" cy="338.2" rx="51.8" ry="29.4"/>
<ellipse id="XMLID_30_" class="st1" cx="454" cy="329" rx="61.1" ry="29.1"/>
<ellipse id="XMLID_29_" class="st1" cx="455.5" cy="321" rx="51.8" ry="29.4"/>
<ellipse id="XMLID_28_" class="st1" cx="492.9" cy="335.6" rx="51.8" ry="29.4"/>
<ellipse id="XMLID_33_" class="st1" cx="242" cy="333.8" rx="46.3" ry="22.1"/>
<ellipse id="XMLID_32_" class="st1" cx="261.4" cy="316.6" rx="48.4" ry="27.5"/>
<ellipse id="XMLID_34_" class="st1" cx="314.2" cy="325.6" rx="48.4" ry="27.5"/>
<ellipse id="XMLID_35_" class="st1" cx="324.3" cy="338.2" rx="48.4" ry="27.5"/>
<ellipse id="XMLID_36_" class="st1" cx="580.5" cy="348" rx="48.4" ry="27.5"/>
<ellipse id="XMLID_37_" class="st1" cx="544.7" cy="320.5" rx="48.4" ry="27.5"/>
<ellipse id="XMLID_38_" class="st1" cx="287.5" cy="338.2" rx="48.4" ry="27.5"/>
<path id="XMLID_31_" class="st0" d="M403.9,237.4h-1.9c-1.1,0-2-0.9-2-2v-15.1c0-1.1,0.9-2,2-2h1.9c1.1,0,2,0.9,2,2v15.1
	C405.8,236.5,405,237.4,403.9,237.4z"/>
<g id="XMLID_1_">
	<path id="XMLID_23_" class="st2" d="M388.1,234.7"/>
	<path id="XMLID_18_" class="st2" d="M388.1,222.4"/>
	<path id="XMLID_11_" class="st2" d="M387.9,212.2h14.8c1.3,0,2.4,1,2.4,2.3v0c0,1.3-1.1,2.3-2.4,2.3h-14.8h0.3c-1.7,0-3,1.3-3,2.9
		c0,1.6,1.4,2.8,3.1,2.8c4.4-0.1,8,3.3,8,7.4c0,4.1-3.5,7.4-7.7,7.5c-4.4,0.1-8-3.3-8-7.4v0.2v-0.8c0-1.3,1.1-2.3,2.4-2.3l0,0
		c1.3,0,2.4,1,2.4,2.3v0.8v-0.2c0,1.6,1.3,2.8,3,2.8c1.7,0,3-1.3,3-2.9c0-1.6-1.4-2.8-3.1-2.8c-4.4,0.1-8-3.3-8-7.4
		c0-4.1,3.5-7.4,7.9-7.4"/>
</g>
<path id="XMLID_9_" class="st3" d="M422,231.5c-3.7,0-6.7-3.1-6.5-6.9c0.2-3.3,2.9-6,6.3-6.1c2.8-0.1,5.1,1.5,6.2,3.9
	c0.5,1.1,1.5,1.8,2.7,1.8l0,0c2.1,0,3.6-2.2,2.7-4.1c-2.3-5.2-8-8.5-14.3-7c-4.5,1-8,4.5-9,9c-2,8.2,4.2,15.5,12,15.5
	c5.1,0,9.4-3,11.3-7.4c0.9-1.9-0.6-4.1-2.7-4.1h0c-1.2,0-2.2,0.7-2.7,1.8C426.9,229.9,424.6,231.5,422,231.5z"/>
<path id="XMLID_13_" class="st3" d="M449.7,212.5c-6.8,0-12.4,5.5-12.4,12.4c0,6.8,5.5,12.4,12.4,12.4c6.8,0,12.4-5.5,12.4-12.4
	C462,218,456.5,212.5,449.7,212.5z M449.7,231.4c-3.6,0-6.5-2.9-6.5-6.5c0-3.6,2.9-6.5,6.5-6.5c3.6,0,6.5,2.9,6.5,6.5
	C456.2,228.4,453.3,231.4,449.7,231.4z"/>
<polyline id="XMLID_25_" class="st4" points="523.3,356 558.9,364.7 500.5,449.6 "/>
<polyline id="XMLID_26_" class="st4" points="523.5,402.8 483,396.7 536.3,317.4 "/>
<polyline id="XMLID_39_" class="st4" points="444.6,367.5 466.2,372.7 430.8,424.2 "/>
<polyline id="XMLID_27_" class="st4" points="444.7,395.9 420.2,392.2 452.5,344.1 "/>
<rect id="XMLID_40_" x="194.3" y="395.9" class="st5" width="454.6" height="84"/>
<text id="XMLID_41_" transform="matrix(1 0 0 1 194.3033 420.1848)"><tspan x="0" y="0" class="st6 st7 st8">Página </tspan><tspan x="0" y="39.4" class="st6 st7 st8">no encontrada</tspan></text>
</svg>
